<svg width="38" height="38" viewBox="0 0 38 38" fill="none" xmlns="http://www.w3.org/2000/svg">
<g id="icon_youtube " clip-path="url(#clip0_3065_1498)">
<path id="Vector" d="M24.8492 17.2921L16.4541 12.6987C15.9714 12.4346 15.4008 12.4444 14.9277 12.7248C14.4543 13.0054 14.1719 13.5012 14.1719 14.0514V23.1595C14.1719 23.7071 14.4525 24.202 14.9228 24.4829C15.1683 24.6296 15.4406 24.7033 15.7134 24.7033C15.9633 24.7033 16.2138 24.6415 16.4442 24.5174L24.8397 20.0031C25.338 19.735 25.6491 19.2169 25.6514 18.6507C25.6535 18.0845 25.3462 17.5641 24.8492 17.2921ZM16.3987 22.0137V15.2065L22.6731 18.6397L16.3987 22.0137Z" fill="#4D4D4D"/>
<path id="Vector_2" d="M37.7205 11.3946L37.7188 11.3772C37.6866 11.0714 37.3662 8.35077 36.0436 6.967C34.5149 5.3394 32.7818 5.14168 31.9483 5.04688C31.8793 5.03905 31.8161 5.0318 31.7595 5.02426L31.6932 5.0173C26.6695 4.65201 19.0826 4.60214 19.0067 4.60185L19 4.60156L18.9933 4.60185C18.9174 4.60214 11.3305 4.65201 6.26163 5.0173L6.19466 5.02426C6.14073 5.03151 6.0813 5.03818 6.01665 5.04572C5.1927 5.14081 3.47813 5.33882 1.94505 7.02527C0.685364 8.39426 0.321228 11.0566 0.283829 11.3558L0.27948 11.3946C0.268173 11.5219 0 14.5518 0 17.5936V20.4371C0 23.4789 0.268173 26.5089 0.27948 26.6364L0.281509 26.6555C0.31369 26.9565 0.633759 29.6272 1.95027 31.0116C3.38768 32.5846 5.20517 32.7928 6.18277 32.9047C6.3373 32.9224 6.47037 32.9375 6.56111 32.9534L6.64896 32.9656C9.54958 33.2416 18.644 33.3776 19.0296 33.3831L19.0412 33.3834L19.0528 33.3831C19.1287 33.3828 26.7153 33.3329 31.739 32.9676L31.8053 32.9607C31.8688 32.9523 31.9402 32.9447 32.0184 32.9366C32.8377 32.8496 34.543 32.669 36.055 31.0055C37.3146 29.6362 37.6791 26.9739 37.7162 26.675L37.7205 26.6361C37.7318 26.5086 38.0003 23.4789 38.0003 20.4371V17.5936C38 14.5518 37.7318 11.5222 37.7205 11.3946ZM35.7732 20.4371C35.7732 23.2525 35.5273 26.152 35.5041 26.4181C35.4096 27.1513 35.0255 28.8357 34.4117 29.5028C33.4654 30.5439 32.4933 30.6471 31.7836 30.7222C31.6978 30.7312 31.6184 30.7399 31.5465 30.7489C26.6874 31.1003 19.387 31.1542 19.0507 31.1562C18.6736 31.1507 9.71222 31.0136 6.90003 30.7524C6.75594 30.7289 6.60025 30.7109 6.43616 30.6924C5.60381 30.597 4.46443 30.4665 3.5883 29.5028L3.56772 29.4808C2.96469 28.8525 2.59157 27.2774 2.49677 26.4268C2.47908 26.2256 2.22685 23.2919 2.22685 20.4371V17.5936C2.22685 14.7814 2.47212 11.8851 2.4959 11.6135C2.60867 10.7498 3.00006 9.16747 3.5883 8.52791C4.56358 7.45522 5.59192 7.33635 6.27207 7.25778C6.33701 7.25024 6.3976 7.24329 6.45355 7.23604C11.3833 6.88292 18.7362 6.83044 19 6.82841C19.2638 6.83015 26.6141 6.88292 31.5001 7.23604C31.5601 7.24358 31.6256 7.25111 31.6961 7.25923C32.3956 7.33896 33.4529 7.45956 34.4233 8.49457L34.4323 8.50414C35.0353 9.13239 35.4084 10.735 35.5032 11.6028C35.5201 11.7927 35.7732 14.7327 35.7732 17.5936V20.4371Z" fill="#4D4D4D"/>
</g>
<defs>
<clipPath id="clip0_3065_1498">
<rect width="38.0002" height="38" fill="white"/>
</clipPath>
</defs>
</svg>
